<svg version="1.1" xmlns="http://www.w3.org/2000/svg" xmlns:xlink="http://www.w3.org/1999/xlink" width="48" height="48" viewBox="0,0,256,256"><g fill="#c80000" fill-rule="nonzero" stroke="none" stroke-width="1" stroke-linecap="butt" stroke-linejoin="miter" stroke-miterlimit="10" stroke-dasharray="" stroke-dashoffset="0" font-family="none" font-weight="none" font-size="none" text-anchor="none" style="mix-blend-mode: normal"><g transform="translate(0,254.4) scale(0.26667,0.26667)"><path d="M306,-172c-14.5,0 -27.125,-5.375 -37.875,-16.125c-10.75,-10.75 -16.125,-23.375 -16.125,-37.875v-503h-40v-22h144v-25h248v25h144v22h-40v503c0,15.18333 -5.204,27.979 -15.612,38.387c-10.40867,10.40867 -23.20467,15.613 -38.388,15.613zM686,-729h-412v503c0,9.33333 3.16667,17 9.5,23c6.33333,6 13.83333,9 22.5,9h348c8,0 15.33333,-3.33333 22,-10c6.66667,-6.66667 10,-14 10,-22zM404,-276h22v-372h-22zM534,-276h22v-372h-22zM274,-729v535z"></path></g></g></svg>